<svg id="Layer_1" data-name="Layer 1"
    xmlns="http://www.w3.org/2000/svg" xmlns:xlink="http://www.w3.org/1999/xlink"
    viewBox="0 0 1280 1024"><defs>
    <style>.cls-1{fill:url(#linear-gradient);}</style>
    <linearGradient id="linear-gradient" x1="76.14" y1="-196.01" x2="1067.99" y2="1186.5" 
    gradientUnits="userSpaceOnUse"><stop offset="0" stop-color="#a15ccf"/><stop offset="0.1" 
    stop-color="#b478d9"/><stop offset="0.39" stop-color="#e9c6f4"/><stop offset="0.52" 
    stop-color="#fee4ff"/><stop offset="0.56" stop-color="#f4e1fd"/><stop offset="0.63" 
    stop-color="#dbd9f8"/><stop offset="0.71" stop-color="#b1cdf0"/><stop offset="0.82" 
    stop-color="#77bce5"/><stop offset="0.93" stop-color="#2ea6d8"/><stop offset="1" 
    stop-color="#0098cf"/></linearGradient></defs>
    <title>RECOVERYBG</title>
    <path class="cls-1" d="M1280,698V280a208,208,0,0,0-125.47,41.85C1134.64,227.13,1050.63,156,950,156a208,208,0,0,0-114.84,34.37C825.73,83.67,736.15,0,627,0H0V873H2.79C17.93,958.81,92.85,1024,183,1024a182.56,182.56,0,0,0,137-61.69,183,183,0,0,0,294-27.25,183.06,183.06,0,0,0,320-10.79A183,183,0,0,0,1097,1024c90.15,0,165.07-65.19,180.21-151H1280Z"/>
</svg>